<mxfile host="app.diagrams.net" agent="Mozilla/5.0 (Windows NT 10.0; Win64; x64) AppleWebKit/537.36 (KHTML, like Gecko) Chrome/135.0.0.0 Safari/537.36" version="26.2.14">
  <diagram name="Página-1" id="1HxhUpVpKpO0KGDjOgne">
    <mxGraphModel dx="1426" dy="811" grid="1" gridSize="10" guides="1" tooltips="1" connect="1" arrows="1" fold="1" page="1" pageScale="1" pageWidth="827" pageHeight="1169" math="0" shadow="0">
      <root>
        <mxCell id="0" />
        <mxCell id="1" parent="0" />
        <mxCell id="0B_SHqXhbdFJTbc_eyU5-14" style="edgeStyle=orthogonalEdgeStyle;rounded=0;orthogonalLoop=1;jettySize=auto;html=1;entryX=0.5;entryY=0;entryDx=0;entryDy=0;" parent="1" source="0B_SHqXhbdFJTbc_eyU5-1" target="0B_SHqXhbdFJTbc_eyU5-2" edge="1">
          <mxGeometry relative="1" as="geometry">
            <mxPoint x="230" y="30" as="targetPoint" />
          </mxGeometry>
        </mxCell>
        <mxCell id="0B_SHqXhbdFJTbc_eyU5-15" style="edgeStyle=orthogonalEdgeStyle;rounded=0;orthogonalLoop=1;jettySize=auto;html=1;entryX=0.5;entryY=0;entryDx=0;entryDy=0;" parent="1" source="0B_SHqXhbdFJTbc_eyU5-1" target="0B_SHqXhbdFJTbc_eyU5-3" edge="1">
          <mxGeometry relative="1" as="geometry">
            <mxPoint x="580" y="30" as="targetPoint" />
          </mxGeometry>
        </mxCell>
        <mxCell id="0B_SHqXhbdFJTbc_eyU5-1" value="Paciente" style="shape=umlActor;verticalLabelPosition=bottom;verticalAlign=top;html=1;outlineConnect=0;" parent="1" vertex="1">
          <mxGeometry x="390" width="30" height="60" as="geometry" />
        </mxCell>
        <mxCell id="0B_SHqXhbdFJTbc_eyU5-16" style="edgeStyle=orthogonalEdgeStyle;rounded=0;orthogonalLoop=1;jettySize=auto;html=1;entryX=0;entryY=0.5;entryDx=0;entryDy=0;" parent="1" source="0B_SHqXhbdFJTbc_eyU5-2" target="0B_SHqXhbdFJTbc_eyU5-4" edge="1">
          <mxGeometry relative="1" as="geometry">
            <mxPoint x="230" y="310" as="targetPoint" />
          </mxGeometry>
        </mxCell>
        <mxCell id="0B_SHqXhbdFJTbc_eyU5-2" value="Sensor de Batimentos&lt;div&gt;MAX30100&lt;/div&gt;" style="rounded=0;whiteSpace=wrap;html=1;" parent="1" vertex="1">
          <mxGeometry x="170" y="130" width="120" height="60" as="geometry" />
        </mxCell>
        <mxCell id="0B_SHqXhbdFJTbc_eyU5-17" style="edgeStyle=orthogonalEdgeStyle;rounded=0;orthogonalLoop=1;jettySize=auto;html=1;entryX=1;entryY=0.5;entryDx=0;entryDy=0;" parent="1" source="0B_SHqXhbdFJTbc_eyU5-3" target="0B_SHqXhbdFJTbc_eyU5-4" edge="1">
          <mxGeometry relative="1" as="geometry" />
        </mxCell>
        <mxCell id="0B_SHqXhbdFJTbc_eyU5-3" value="Sensor de Temperatura&lt;div&gt;MLX90614&lt;/div&gt;" style="rounded=0;whiteSpace=wrap;html=1;" parent="1" vertex="1">
          <mxGeometry x="510" y="130" width="120" height="60" as="geometry" />
        </mxCell>
        <mxCell id="0B_SHqXhbdFJTbc_eyU5-4" value="ESP32" style="rounded=1;whiteSpace=wrap;html=1;" parent="1" vertex="1">
          <mxGeometry x="345" y="210" width="120" height="60" as="geometry" />
        </mxCell>
        <mxCell id="0B_SHqXhbdFJTbc_eyU5-21" style="edgeStyle=orthogonalEdgeStyle;rounded=0;orthogonalLoop=1;jettySize=auto;html=1;entryX=0.5;entryY=0;entryDx=0;entryDy=0;" parent="1" source="0B_SHqXhbdFJTbc_eyU5-6" target="0B_SHqXhbdFJTbc_eyU5-8" edge="1">
          <mxGeometry relative="1" as="geometry" />
        </mxCell>
        <mxCell id="0B_SHqXhbdFJTbc_eyU5-6" value="Back-End / Servidor" style="ellipse;shape=cloud;whiteSpace=wrap;html=1;" parent="1" vertex="1">
          <mxGeometry x="332.5" y="320" width="145" height="100" as="geometry" />
        </mxCell>
        <mxCell id="0B_SHqXhbdFJTbc_eyU5-7" value="Banco de Dados" style="shape=cylinder3;whiteSpace=wrap;html=1;boundedLbl=1;backgroundOutline=1;size=15;" parent="1" vertex="1">
          <mxGeometry x="620" y="330" width="60" height="80" as="geometry" />
        </mxCell>
        <mxCell id="0B_SHqXhbdFJTbc_eyU5-8" value="Front-End / Dashboard" style="swimlane;whiteSpace=wrap;html=1;" parent="1" vertex="1">
          <mxGeometry x="305" y="460" width="200" height="200" as="geometry" />
        </mxCell>
        <mxCell id="0B_SHqXhbdFJTbc_eyU5-18" style="edgeStyle=orthogonalEdgeStyle;rounded=0;orthogonalLoop=1;jettySize=auto;html=1;exitX=0.5;exitY=1;exitDx=0;exitDy=0;entryX=0.5;entryY=0.2;entryDx=0;entryDy=0;entryPerimeter=0;" parent="1" source="0B_SHqXhbdFJTbc_eyU5-4" target="0B_SHqXhbdFJTbc_eyU5-6" edge="1">
          <mxGeometry relative="1" as="geometry" />
        </mxCell>
        <mxCell id="0B_SHqXhbdFJTbc_eyU5-20" style="edgeStyle=orthogonalEdgeStyle;rounded=0;orthogonalLoop=1;jettySize=auto;html=1;entryX=0.033;entryY=0.588;entryDx=0;entryDy=0;entryPerimeter=0;" parent="1" source="0B_SHqXhbdFJTbc_eyU5-6" target="0B_SHqXhbdFJTbc_eyU5-7" edge="1">
          <mxGeometry relative="1" as="geometry" />
        </mxCell>
        <mxCell id="0B_SHqXhbdFJTbc_eyU5-22" value="Médico" style="shape=umlActor;verticalLabelPosition=bottom;verticalAlign=top;html=1;outlineConnect=0;" parent="1" vertex="1">
          <mxGeometry x="130" y="580" width="30" height="60" as="geometry" />
        </mxCell>
        <mxCell id="0B_SHqXhbdFJTbc_eyU5-23" value="Enfermeiro" style="shape=umlActor;verticalLabelPosition=bottom;verticalAlign=top;html=1;outlineConnect=0;" parent="1" vertex="1">
          <mxGeometry x="635" y="580" width="30" height="60" as="geometry" />
        </mxCell>
        <mxCell id="0B_SHqXhbdFJTbc_eyU5-24" style="edgeStyle=orthogonalEdgeStyle;rounded=0;orthogonalLoop=1;jettySize=auto;html=1;entryX=0.5;entryY=0;entryDx=0;entryDy=0;entryPerimeter=0;" parent="1" source="0B_SHqXhbdFJTbc_eyU5-8" target="0B_SHqXhbdFJTbc_eyU5-23" edge="1">
          <mxGeometry relative="1" as="geometry" />
        </mxCell>
        <mxCell id="0B_SHqXhbdFJTbc_eyU5-25" style="edgeStyle=orthogonalEdgeStyle;rounded=0;orthogonalLoop=1;jettySize=auto;html=1;entryX=0.5;entryY=0;entryDx=0;entryDy=0;entryPerimeter=0;" parent="1" source="0B_SHqXhbdFJTbc_eyU5-8" target="0B_SHqXhbdFJTbc_eyU5-22" edge="1">
          <mxGeometry relative="1" as="geometry" />
        </mxCell>
      </root>
    </mxGraphModel>
  </diagram>
</mxfile>
